<?xml version="1.0" standalone="no"?>
<!DOCTYPE svg PUBLIC "-//W3C//DTD SVG 20010904//EN"
 "http://www.w3.org/TR/2001/REC-SVG-20010904/DTD/svg10.dtd">
<svg version="1.0" xmlns="http://www.w3.org/2000/svg"
 width="1816.000000pt" height="1452.000000pt" viewBox="0 0 1816.000000 1452.000000"
 preserveAspectRatio="xMidYMid meet">

<g transform="translate(0.000000,1452.000000) scale(0.100000,-0.100000)"
fill="#000000" stroke="none">
<path d="M0 14510 c0 -7 3033 -10 9080 -10 6047 0 9080 3 9080 10 0 7 -3033
10 -9080 10 -6047 0 -9080 -3 -9080 -10z"/>
<path d="M640 14275 l0 -45 -50 0 -50 0 0 -45 0 -45 -45 0 -45 0 0 -45 0 -45
-45 0 -45 0 0 -275 0 -275 45 0 45 0 0 -45 0 -45 45 0 45 0 0 -45 0 -45 50 0
50 0 0 -45 0 -45 90 0 90 0 0 45 0 45 45 0 45 0 0 45 0 45 45 0 45 0 0 45 0
45 45 0 45 0 0 275 0 275 -45 0 -45 0 0 45 0 45 -45 0 -45 0 0 45 0 45 -45 0
-45 0 0 45 0 45 -90 0 -90 0 0 -45z m180 -90 l0 -45 45 0 45 0 0 -45 0 -45 45
0 45 0 0 -275 0 -275 -45 0 -45 0 0 -45 0 -45 -45 0 -45 0 0 -45 0 -45 -90 0
-90 0 0 45 0 45 -50 0 -50 0 0 45 0 45 -45 0 -45 0 0 275 0 275 45 0 45 0 0
45 0 45 50 0 50 0 0 45 0 45 90 0 90 0 0 -45z"/>
<path d="M2090 14275 l0 -45 -45 0 -45 0 0 -45 0 -45 -45 0 -45 0 0 -45 0 -45
-45 0 -45 0 0 -275 0 -275 45 0 45 0 0 -45 0 -45 45 0 45 0 0 -45 0 -45 45 0
45 0 0 -45 0 -45 90 0 90 0 0 45 0 45 45 0 45 0 0 45 0 45 45 0 45 0 0 45 0
45 45 0 45 0 0 275 0 275 -45 0 -45 0 0 45 0 45 -45 0 -45 0 0 45 0 45 -45 0
-45 0 0 45 0 45 -90 0 -90 0 0 -45z m180 -90 l0 -45 45 0 45 0 0 -45 0 -45 45
0 45 0 0 -275 0 -275 -45 0 -45 0 0 -45 0 -45 -45 0 -45 0 0 -45 0 -45 -90 0
-90 0 0 45 0 45 -45 0 -45 0 0 45 0 45 -45 0 -45 0 0 275 0 275 45 0 45 0 0
45 0 45 45 0 45 0 0 45 0 45 90 0 90 0 0 -45z"/>
<path d="M0 13005 l0 -45 1455 0 1455 0 0 45 0 45 -1455 0 -1455 0 0 -45z"/>
<path d="M0 12235 l0 -635 45 0 45 0 0 45 0 45 45 0 45 0 0 -45 0 -45 230 0
230 0 0 90 0 90 90 0 90 0 0 -90 0 -90 360 0 360 0 0 45 0 45 45 0 45 0 0 -45
0 -45 230 0 230 0 0 90 0 90 90 0 90 0 0 -90 0 -90 320 0 320 0 0 635 0 635
-1455 0 -1455 0 0 -635z m450 -410 l0 -45 -45 0 -45 0 0 45 0 45 45 0 45 0 0
-45z m1460 0 l0 -45 -45 0 -45 0 0 45 0 45 45 0 45 0 0 -45z"/>
<path d="M4360 10095 l0 -45 1450 0 1450 0 0 45 0 45 -1450 0 -1450 0 0 -45z"/>
<path d="M4360 9325 l0 -635 45 0 45 0 0 45 0 45 45 0 45 0 0 -45 0 -45 225 0
225 0 0 90 0 90 95 0 95 0 0 -90 0 -90 360 0 360 0 0 45 0 45 45 0 45 0 0 -45
0 -45 230 0 230 0 0 90 0 90 90 0 90 0 0 -90 0 -90 315 0 315 0 0 635 0 635
-1450 0 -1450 0 0 -635z m450 -410 l0 -45 -45 0 -45 0 0 45 0 45 45 0 45 0 0
-45z m1460 0 l0 -45 -50 0 -50 0 0 45 0 45 50 0 50 0 0 -45z"/>
<path d="M10810 8465 l0 -45 -50 0 -50 0 0 -45 0 -45 -45 0 -45 0 0 -45 0 -45
-45 0 -45 0 0 -275 0 -275 45 0 45 0 0 -45 0 -45 45 0 45 0 0 -45 0 -45 50 0
50 0 0 -45 0 -45 90 0 90 0 0 45 0 45 45 0 45 0 0 45 0 45 45 0 45 0 0 45 0
45 45 0 45 0 0 275 0 275 -45 0 -45 0 0 45 0 45 -45 0 -45 0 0 45 0 45 -45 0
-45 0 0 45 0 45 -90 0 -90 0 0 -45z m180 -90 l0 -45 45 0 45 0 0 -45 0 -45 45
0 45 0 0 -275 0 -275 -45 0 -45 0 0 -45 0 -45 -45 0 -45 0 0 -45 0 -45 -90 0
-90 0 0 45 0 45 -50 0 -50 0 0 45 0 45 -45 0 -45 0 0 275 0 275 45 0 45 0 0
45 0 45 50 0 50 0 0 45 0 45 90 0 90 0 0 -45z"/>
<path d="M8720 7195 l0 -45 2180 0 2180 0 0 45 0 45 -2180 0 -2180 0 0 -45z"/>
<path d="M8720 6425 l0 -635 45 0 45 0 0 45 0 45 45 0 45 0 0 -45 0 -45 225 0
225 0 0 90 0 90 90 0 90 0 0 -90 0 -90 365 0 365 0 0 45 0 45 45 0 45 0 0 -45
0 -45 230 0 230 0 0 90 0 90 90 0 90 0 0 -90 0 -90 360 0 360 0 0 45 0 45 45
0 45 0 0 -45 0 -45 230 0 230 0 0 90 0 90 90 0 90 0 0 -90 0 -90 320 0 320 0
0 635 0 635 -2180 0 -2180 0 0 -635z m450 -410 l0 -45 -45 0 -45 0 0 45 0 45
45 0 45 0 0 -45z m1450 0 l0 -45 -45 0 -45 0 0 45 0 45 45 0 45 0 0 -45z
m1460 0 l0 -45 -45 0 -45 0 0 45 0 45 45 0 45 0 0 -45z"/>
<path d="M17430 5745 l0 -45 365 0 365 0 0 45 0 45 -365 0 -365 0 0 -45z"/>
<path d="M17430 4975 l0 -635 45 0 45 0 0 45 0 45 50 0 50 0 0 -45 0 -45 225
0 225 0 0 90 0 90 45 0 45 0 0 545 0 545 -365 0 -365 0 0 -635z m460 -410 l0
-45 -45 0 -45 0 0 45 0 45 45 0 45 0 0 -45z"/>
<path d="M7900 2655 l0 -45 -45 0 -45 0 0 -45 0 -45 -45 0 -45 0 0 -45 0 -45
-45 0 -45 0 0 -270 0 -270 45 0 45 0 0 -45 0 -45 45 0 45 0 0 -50 0 -50 45 0
45 0 0 -45 0 -45 90 0 90 0 0 45 0 45 45 0 45 0 0 50 0 50 45 0 45 0 0 45 0
45 45 0 45 0 0 270 0 270 -45 0 -45 0 0 45 0 45 -45 0 -45 0 0 45 0 45 -45 0
-45 0 0 45 0 45 -90 0 -90 0 0 -45z m180 -90 l0 -45 45 0 45 0 0 -45 0 -45 45
0 45 0 0 -270 0 -270 -45 0 -45 0 0 -45 0 -45 -45 0 -45 0 0 -50 0 -50 -90 0
-90 0 0 50 0 50 -45 0 -45 0 0 45 0 45 -45 0 -45 0 0 270 0 270 45 0 45 0 0
45 0 45 45 0 45 0 0 45 0 45 90 0 90 0 0 -45z"/>
<path d="M10810 2655 l0 -45 -50 0 -50 0 0 -45 0 -45 -45 0 -45 0 0 -45 0 -45
-45 0 -45 0 0 -270 0 -270 45 0 45 0 0 -45 0 -45 45 0 45 0 0 -50 0 -50 50 0
50 0 0 -45 0 -45 90 0 90 0 0 45 0 45 45 0 45 0 0 50 0 50 45 0 45 0 0 45 0
45 45 0 45 0 0 270 0 270 -45 0 -45 0 0 45 0 45 -45 0 -45 0 0 45 0 45 -45 0
-45 0 0 45 0 45 -90 0 -90 0 0 -45z m180 -90 l0 -45 45 0 45 0 0 -45 0 -45 45
0 45 0 0 -270 0 -270 -45 0 -45 0 0 -45 0 -45 -45 0 -45 0 0 -50 0 -50 -90 0
-90 0 0 50 0 50 -50 0 -50 0 0 45 0 45 -45 0 -45 0 0 270 0 270 45 0 45 0 0
45 0 45 50 0 50 0 0 45 0 45 90 0 90 0 0 -45z"/>
<path d="M13710 2655 l0 -45 -45 0 -45 0 0 -45 0 -45 -45 0 -45 0 0 -45 0 -45
-45 0 -45 0 0 -270 0 -270 45 0 45 0 0 -45 0 -45 45 0 45 0 0 -50 0 -50 45 0
45 0 0 -45 0 -45 90 0 90 0 0 45 0 45 45 0 45 0 0 50 0 50 45 0 45 0 0 45 0
45 45 0 45 0 0 270 0 270 -45 0 -45 0 0 45 0 45 -45 0 -45 0 0 45 0 45 -45 0
-45 0 0 45 0 45 -90 0 -90 0 0 -45z m180 -90 l0 -45 45 0 45 0 0 -45 0 -45 45
0 45 0 0 -270 0 -270 -45 0 -45 0 0 -45 0 -45 -45 0 -45 0 0 -50 0 -50 -90 0
-90 0 0 50 0 50 -45 0 -45 0 0 45 0 45 -45 0 -45 0 0 270 0 270 45 0 45 0 0
45 0 45 45 0 45 0 0 45 0 45 90 0 90 0 0 -45z"/>
<path d="M4180 2385 l0 -45 -45 0 -45 0 0 -45 0 -45 -45 0 -45 0 0 -180 0
-180 45 0 45 0 0 -45 0 -45 -45 0 -45 0 0 -50 0 -50 -50 0 -50 0 0 -90 0 -90
50 0 50 0 0 -45 0 -45 -2000 0 -2000 0 0 -45 0 -45 1950 0 1950 0 0 -45 0 -45
-1950 0 -1950 0 0 -625 0 -625 45 0 c45 0 45 0 45 35 0 35 0 35 45 35 45 0 45
0 45 -35 l0 -35 230 0 230 0 0 80 0 80 90 0 90 0 0 -80 0 -80 360 0 360 0 0
35 c0 35 0 35 45 35 45 0 45 0 45 -35 l0 -35 230 0 230 0 0 80 0 80 90 0 90 0
0 -80 0 -80 365 0 365 0 0 35 c0 35 0 35 45 35 45 0 45 0 45 -35 l0 -35 225 0
225 0 0 80 0 80 90 0 90 0 0 -80 0 -80 365 0 365 0 0 35 c0 35 0 35 45 35 45
0 45 0 45 -35 l0 -35 225 0 225 0 0 80 0 80 95 0 95 0 0 -80 0 -80 360 0 360
0 0 35 c0 35 0 35 45 35 45 0 45 0 45 -35 l0 -35 230 0 230 0 0 80 0 80 90 0
90 0 0 -80 0 -80 360 0 360 0 0 35 0 35 50 0 50 0 0 -35 0 -35 225 0 225 0 0
80 0 80 90 0 90 0 0 -80 0 -80 365 0 365 0 0 35 c0 35 0 35 45 35 45 0 45 0
45 -35 l0 -35 225 0 225 0 0 80 0 80 90 0 90 0 0 -80 0 -80 365 0 365 0 0 35
c0 35 0 35 45 35 45 0 45 0 45 -35 l0 -35 230 0 230 0 0 80 0 80 90 0 90 0 0
-80 0 -80 360 0 360 0 0 35 c0 35 0 35 45 35 45 0 45 0 45 -35 l0 -35 230 0
230 0 0 80 0 80 90 0 90 0 0 -80 0 -80 365 0 365 0 0 35 c0 35 0 35 45 35 45
0 45 0 45 -35 l0 -35 225 0 225 0 0 80 0 80 90 0 90 0 0 -80 0 -80 365 0 365
0 0 35 c0 35 0 35 45 35 45 0 45 0 45 -35 l0 -35 225 0 225 0 0 80 0 80 95 0
95 0 0 -80 0 -80 1405 0 1405 0 0 260 0 260 -45 0 -45 0 0 50 0 50 -45 0 -45
0 0 -50 0 -50 -90 0 -90 0 0 -45 0 -45 -45 0 -45 0 0 45 0 45 -95 0 -95 0 0
50 0 50 -45 0 -45 0 0 -95 0 -95 -45 0 -45 0 0 45 0 45 -90 0 -90 0 0 50 0 50
-45 0 -45 0 0 -95 0 -95 -45 0 -45 0 0 45 0 45 -90 0 -90 0 0 -45 0 -45 -45 0
-45 0 0 45 0 45 -45 0 -45 0 0 50 0 50 -45 0 -45 0 0 -50 0 -50 -95 0 -95 0 0
-45 0 -45 -45 0 -45 0 0 45 0 45 -90 0 -90 0 0 50 0 50 -45 0 -45 0 0 225 0
225 1090 0 1090 0 0 45 0 45 -1090 0 -1090 0 0 45 0 45 -5585 0 -5585 0 0 45
0 45 5585 0 5585 0 0 45 0 45 -5630 0 -5630 0 0 45 0 45 45 0 45 0 0 90 0 90
-45 0 -45 0 0 95 0 95 45 0 45 0 0 180 0 180 -45 0 -45 0 0 45 0 45 -45 0 -45
0 0 45 0 45 -225 0 -225 0 0 -45z m450 -90 l0 -45 45 0 45 0 0 -90 0 -90 -90
0 -90 0 0 -45 0 -45 90 0 90 0 0 -45 0 -45 -45 0 -45 0 0 -95 0 -95 45 0 45 0
0 -90 0 -90 -45 0 -45 0 0 45 0 45 -180 0 -180 0 0 45 0 45 -45 0 -45 0 0 -90
0 -90 -90 0 -90 0 0 90 0 90 45 0 45 0 0 50 0 50 45 0 45 0 0 45 0 45 -45 0
-45 0 0 180 0 180 45 0 45 0 0 45 0 45 225 0 225 0 0 -45z m-450 -910 l0 -45
-90 0 -90 0 0 45 0 45 90 0 90 0 0 -45z m540 0 l0 -45 -90 0 -90 0 0 45 0 45
90 0 90 0 0 -45z m-270 -90 l0 -45 -90 0 -90 0 0 45 0 45 90 0 90 0 0 -45z
m12170 -820 l0 -45 -45 0 -45 0 0 45 0 45 45 0 45 0 0 -45z m1450 0 l0 -45
-45 0 -45 0 0 45 0 45 45 0 45 0 0 -45z m-17620 -270 l0 -45 -45 0 -45 0 0 45
0 45 45 0 45 0 0 -45z m1460 0 l0 -45 -45 0 -45 0 0 45 0 45 45 0 45 0 0 -45z
m1450 0 l0 -45 -45 0 -45 0 0 45 0 45 45 0 45 0 0 -45z m1450 0 l0 -45 -45 0
-45 0 0 45 0 45 45 0 45 0 0 -45z m1460 0 l0 -45 -50 0 -50 0 0 45 0 45 50 0
50 0 0 -45z m1450 0 l0 -45 -45 0 -45 0 0 45 0 45 45 0 45 0 0 -45z m1450 0
l0 -45 -45 0 -45 0 0 45 0 45 45 0 45 0 0 -45z m1450 0 l0 -45 -45 0 -45 0 0
45 0 45 45 0 45 0 0 -45z m1460 0 l0 -45 -45 0 -45 0 0 45 0 45 45 0 45 0 0
-45z m1450 0 l0 -45 -45 0 -45 0 0 45 0 45 45 0 45 0 0 -45z m1450 0 l0 -45
-45 0 -45 0 0 45 0 45 45 0 45 0 0 -45z"/>
<path d="M4180 2025 l0 -45 90 0 90 0 0 45 0 45 -90 0 -90 0 0 -45z"/>
<path d="M16250 665 l0 -45 45 0 45 0 0 45 0 45 -45 0 -45 0 0 -45z"/>
<path d="M16800 665 l0 -45 45 0 45 0 0 45 0 45 -45 0 -45 0 0 -45z"/>
<path d="M17250 665 l0 -45 45 0 45 0 0 45 0 45 -45 0 -45 0 0 -45z"/>
<path d="M17710 665 l0 -45 45 0 45 0 0 45 0 45 -45 0 -45 0 0 -45z"/>
</g>
</svg>
