<?xml version="1.0" standalone="no"?>
<!DOCTYPE svg PUBLIC "-//W3C//DTD SVG 20010904//EN"
 "http://www.w3.org/TR/2001/REC-SVG-20010904/DTD/svg10.dtd">
<svg version="1.0" xmlns="http://www.w3.org/2000/svg"
 width="928.000000pt" height="652.000000pt" viewBox="0 0 928.000000 652.000000"
 preserveAspectRatio="xMidYMid meet">

<g transform="translate(0.000000,652.000000) scale(0.100000,-0.100000)"
fill="#000000" stroke="none">
<path d="M0 3260 l0 -3260 35 0 35 0 0 3190 0 3190 4560 0 4560 0 0 -450 c0
-293 -3 -450 -10 -450 -6 0 -10 -57 -10 -150 0 -93 4 -150 10 -150 7 0 10
-870 10 -2590 l0 -2590 45 0 45 0 0 3260 0 3260 -4640 0 -4640 0 0 -3260z"/>
<path d="M8810 6205 l0 -95 -55 0 -55 0 0 -315 0 -315 155 0 155 0 0 315 0
315 -80 0 -80 0 0 95 c0 88 -1 95 -20 95 -19 0 -20 -7 -20 -95z"/>
<path d="M8410 6275 c0 -10 70 -582 76 -617 4 -29 10 -38 26 -38 17 0 19 5 14
38 -6 35 -76 607 -76 617 0 3 -9 5 -20 5 -11 0 -20 -2 -20 -5z"/>
<path d="M7414 6166 c-4 -9 -1 -23 6 -31 20 -24 73 -633 58 -663 -9 -18 -9
-25 4 -35 12 -9 18 -49 27 -162 17 -219 20 -235 43 -235 17 0 18 5 13 58 -18
169 -31 348 -26 353 6 6 358 169 366 169 2 0 86 -113 186 -250 123 -169 188
-250 198 -247 9 1 16 9 15 17 -1 8 -81 125 -180 259 -98 135 -174 246 -169
248 6 2 91 41 190 87 137 63 180 87 180 101 0 15 -79 47 -435 177 -239 87
-443 160 -453 164 -10 3 -19 -1 -23 -10z m470 -200 l369 -134 -44 -20 c-97
-43 -298 -136 -364 -167 -38 -19 -124 -59 -190 -89 l-120 -56 -8 38 c-4 20
-17 158 -30 305 l-23 268 21 -5 c11 -3 186 -66 389 -140z"/>
<path d="M254 6146 c-3 -8 -1 -23 5 -35 8 -13 11 -218 11 -645 0 -619 0 -626
20 -626 19 0 20 7 20 228 l0 228 150 169 c82 94 150 172 150 175 0 3 -68 110
-150 239 -83 129 -150 245 -150 258 0 18 -6 23 -25 23 -14 0 -28 -6 -31 -14z
m190 -323 c64 -100 116 -186 116 -191 0 -5 -56 -73 -125 -151 l-125 -142 0
343 c0 199 4 338 9 333 5 -6 61 -92 125 -192z"/>
<path d="M6778 6132 c-250 -13 -288 -18 -288 -31 0 -106 62 -977 70 -979 5 -2
10 -9 10 -16 0 -8 59 -17 198 -29 248 -22 242 -22 242 3 0 19 7 20 100 20 93
0 100 1 100 20 0 19 -7 20 -150 20 -137 0 -150 -2 -150 -18 0 -17 -8 -17 -157
-4 -87 8 -159 15 -161 17 -3 2 -32 439 -29 441 1 1 125 14 275 30 244 25 272
30 272 46 0 23 4 23 -293 -8 -136 -15 -250 -25 -252 -22 -5 5 -37 450 -32 454
1 1 163 10 360 20 330 17 357 19 357 36 0 16 -10 18 -92 16 -51 0 -222 -8
-380 -16z"/>
<path d="M850 6058 c0 -24 5 -297 11 -607 8 -454 13 -566 24 -577 11 -11 64
-14 259 -14 239 0 246 1 246 20 0 19 -7 20 -239 20 l-239 0 -6 283 c-3 155 -9
425 -12 600 -6 302 -7 317 -25 317 -16 0 -19 -8 -19 -42z"/>
<path d="M8534 5363 c18 -269 17 -263 38 -263 19 0 20 5 14 83 -3 45 -8 126
-12 180 -6 88 -8 97 -26 97 -19 0 -20 -5 -14 -97z"/>
<path d="M8770 5200 c0 -113 1 -120 20 -120 19 0 20 7 20 120 0 113 -1 120
-20 120 -19 0 -20 -7 -20 -120z"/>
<path d="M793 4495 c-20 -21 -23 -35 -23 -97 0 -62 3 -76 20 -88 11 -8 20 -21
20 -30 0 -9 -9 -22 -20 -30 -11 -8 -20 -22 -20 -32 0 -11 7 -18 20 -18 16 0
20 -7 20 -30 l0 -30 80 0 80 0 0 30 c0 23 4 30 20 30 13 0 20 7 20 18 0 10 -9
24 -20 32 -11 8 -20 21 -20 30 0 9 9 22 20 30 17 12 20 26 20 88 0 64 -3 76
-25 97 -21 22 -32 25 -97 24 -64 0 -76 -3 -95 -24z m183 -9 c8 -8 14 -22 14
-30 0 -13 -14 -16 -79 -16 -54 0 -81 -4 -83 -12 -3 -9 -9 -8 -21 4 -20 20 -21
34 -4 53 17 20 153 20 173 1z m14 -146 c0 -17 -7 -20 -46 -20 -40 0 -74 16
-74 34 0 3 27 6 60 6 53 0 60 -2 60 -20z m-80 -90 c0 -5 9 -10 20 -10 13 0 20
-7 20 -20 0 -18 -7 -20 -60 -20 -53 0 -60 2 -60 20 0 13 7 20 20 20 11 0 20
-4 20 -10 0 -5 9 -10 20 -10 11 0 20 5 20 10 0 6 -4 10 -10 10 -5 0 -10 5 -10
10 0 6 5 10 10 10 6 0 10 -4 10 -10z m-40 -80 c0 -5 -4 -10 -10 -10 -5 0 -10
5 -10 10 0 6 5 10 10 10 6 0 10 -4 10 -10z m80 0 c0 -5 -4 -10 -10 -10 -5 0
-10 5 -10 10 0 6 5 10 10 10 6 0 10 -4 10 -10z"/>
<path d="M2330 4400 c0 -20 7 -20 270 -20 263 0 270 0 270 20 0 20 -7 20 -270
20 -263 0 -270 0 -270 -20z"/>
<path d="M8630 3070 l0 -90 270 0 270 0 0 90 0 90 -270 0 -270 0 0 -90z"/>
<path d="M3570 2740 c0 -20 7 -20 910 -20 903 0 910 0 910 20 0 20 -7 20 -910
20 -903 0 -910 0 -910 -20z"/>
<path d="M3638 2613 c-26 -7 -22 -23 6 -23 32 0 36 -14 36 -136 0 -104 0 -104
-24 -104 -14 0 -28 -5 -31 -11 -5 -7 16 -9 66 -7 47 2 74 7 77 16 2 8 -7 12
-27 12 l-31 0 0 60 c0 57 1 60 28 66 15 3 32 7 39 9 6 2 14 -3 17 -11 4 -10
13 -13 26 -9 19 6 20 2 20 -64 0 -56 -3 -71 -15 -71 -19 0 -20 -16 -1 -23 25
-10 86 4 86 19 0 8 -9 14 -20 14 -17 0 -20 7 -20 43 0 68 44 113 69 70 7 -13
13 -15 21 -7 29 29 -28 66 -69 44 -14 -7 -21 -7 -21 0 0 5 -13 10 -29 10 -28
0 -29 1 -18 29 14 37 -1 57 -52 71 -36 10 -101 12 -133 3z m143 -33 c21 -12
26 -45 8 -56 -6 -4 -26 -10 -44 -14 -29 -6 -34 -5 -39 14 -14 50 -8 66 25 66
17 0 39 -5 50 -10z"/>
<path d="M4810 2598 c0 -20 -1 -20 -20 -3 -26 23 -68 13 -80 -21 -24 -63 0
-114 53 -114 26 0 67 -30 67 -49 0 -21 -34 -42 -64 -39 -25 2 -33 9 -41 36
-16 56 -35 39 -35 -33 0 -55 2 -63 16 -58 10 4 14 14 11 30 -3 18 -1 21 6 14
16 -16 79 -13 105 5 42 29 23 98 -30 109 -65 13 -68 15 -68 49 0 39 20 69 38
57 7 -4 19 -26 27 -47 10 -30 18 -38 33 -36 26 4 32 -21 32 -129 0 -78 -2 -87
-20 -92 -11 -3 -20 -13 -20 -22 0 -15 7 -16 48 -10 56 8 77 23 44 31 -19 6
-22 13 -22 61 l0 55 29 -7 c48 -10 100 27 101 71 0 32 -37 74 -66 74 -14 0
-36 -7 -49 -16 -23 -15 -25 -15 -25 0 0 10 -9 16 -25 16 -23 0 -25 4 -25 45 0
25 -4 45 -10 45 -5 0 -10 -10 -10 -22z m174 -130 c18 -52 -50 -81 -89 -38 -18
20 -18 21 6 46 31 33 70 29 83 -8z"/>
<path d="M4274 2516 c-3 -8 -13 -12 -25 -9 -38 10 -89 -7 -102 -34 -9 -21 -8
-27 8 -39 10 -8 29 -14 41 -14 13 0 34 -4 48 -10 33 -12 24 -40 -13 -40 -31 0
-45 9 -54 33 -4 10 -12 17 -19 15 -7 -3 -22 9 -33 26 -38 57 -119 45 -131 -19
-14 -74 24 -131 79 -120 34 7 65 30 55 41 -4 3 -15 1 -26 -5 -31 -17 -60 -13
-72 8 -16 30 -14 31 50 31 57 0 60 -1 60 -25 0 -16 6 -25 15 -25 8 0 15 7 15
15 0 12 8 14 39 9 55 -9 83 9 79 49 -2 24 1 31 12 30 35 -5 112 -23 120 -28
18 -11 -3 -35 -29 -35 -31 0 -45 9 -54 33 -12 31 -32 13 -35 -31 -2 -33 0 -42
12 -42 9 0 16 7 16 15 0 12 8 14 39 9 54 -9 84 9 79 47 -3 17 -1 32 4 35 4 3
8 25 8 50 0 43 -11 56 -27 32 -4 -8 -29 -13 -57 -14 -35 0 -52 -5 -62 -19 -13
-17 -14 -16 -14 13 0 32 -16 44 -26 18z m-18 -57 c15 -30 15 -31 -1 -25 -9 3
-26 6 -38 6 -12 0 -29 5 -37 10 -13 9 -12 12 4 25 31 23 54 18 72 -16z m160 0
c15 -30 15 -31 -1 -25 -9 3 -26 6 -38 6 -12 0 -29 5 -37 10 -13 9 -12 12 4 25
31 23 54 18 72 -16z m-324 -16 c28 -25 22 -33 -27 -33 -46 0 -58 13 -33 38 17
17 38 15 60 -5z"/>
<path d="M5062 2508 c-13 -13 -16 -38 -5 -38 3 0 15 7 25 16 14 14 20 14 33 4
20 -16 19 -50 0 -50 -30 0 -73 -29 -79 -54 -13 -51 9 -68 92 -71 48 -3 65 6
42 20 -5 3 -10 36 -10 73 0 80 -17 112 -59 112 -15 0 -32 -5 -39 -12z m68
-129 c0 -38 -2 -40 -26 -37 -15 2 -32 11 -38 21 -9 15 -7 22 13 38 37 30 51
25 51 -22z"/>
<path d="M5234 2490 c-31 -12 -54 -49 -54 -85 0 -67 61 -103 111 -66 28 21 28
21 34 1 4 -11 15 -24 25 -30 23 -12 75 -3 91 16 16 20 5 28 -19 15 -31 -17
-60 -13 -72 8 -16 30 -14 31 50 31 56 0 60 1 60 24 0 38 -37 76 -74 76 -45 0
-66 -19 -73 -66 -4 -32 -11 -43 -34 -53 -16 -7 -36 -10 -44 -7 -20 7 -30 53
-19 85 8 21 17 26 44 27 54 2 56 4 36 19 -22 17 -32 18 -62 5z m178 -47 c28
-25 22 -33 -27 -33 -46 0 -58 13 -33 38 17 17 38 15 60 -5z"/>
</g>
</svg>
